**ABCDEFGHIJKLMNOPQRSTUVWXYZabcdefghijklmnopqrstuvwxyz**************************
**PARASOLID !"#$%&'()*+,-./:;<=>?@[\]^_`{|}~0123456789**************************
**PART1;
MC=unknown;
MC_MODEL=unknown;
MC_ID=unknown;
OS=unknown;
OS_RELEASE=unknown;
FRU=Parasolid 37.0.209;
APPL=Onshape;
SITE=unknown;
USER=unknown;
FORMAT=text;
GUISE=transmit;
KEY=BTGapi::writeModels_.xmt;
FILE=BTGapi::writeModels_.xmt;
DATE=2025-07-01T17:35:36 (UTC);
**PART2;
SCH=SCH_3700209_36001;
USFLD_SIZE=0;
**PART3;
**END_OF_HEADER*****************************************************************
T51 : TRANSMIT FILE created by modeller version 370020923 SCH_3700209_36001_1300
6231 0 10 21 CCCCI7 lattice222 0 CCCI4 mesh1006 0 I8 polyline1008 0 CCCCCCCCCCA1
6 mesh_offset_data206 0 Z1 17 2 3 0 0 0 0 0 0 0 0 1e3 1e-8 0 0 0 1 0 1 4 0 81 25
5 1 2 2 5 1 6 0 0 0 7 70 11 CI9 list_type0 0 1 uI10 notransmit0 0 1 lCCCDCCDI12
 finger_index0 0 1 dI12 finger_block1012 0 CZ3 0 4 T1 0 0 3 20 1 8 8 11 255 4 15
 9 1 10 11 1 12 0 0 0 81 1 9 17 13 4 0 0 14 0 15 12 36 CCCI7 lattice222 0 CCCI4
 mesh1006 0 I8 polyline1008 0 CCCCCCCDI5 owner1040 0 CCCI16 boundary_lattice222
 0 CCCI13 boundary_mesh1006 0 I17 boundary_polyline1008 0 CCCA16 index_map_offse
t0 0 1 dA9 index_map82 0 A17 node_id_index_map82 0 A20 schema_embedding_map82 0
 A5 child12 0 A14 lowest_node_id0 0 1 dA16 mesh_offset_data206 0 Z10 156 16 17 0
 0 0 0 0 0 0 1e3 1e-8 4 18 0 1 0 1 2 19 0 20 21 0 0 0 22 23 0 0 0 0 0 0 0 0 100
 10 CCCCCCCCCA9 precision229 0 Z11 16 4 0 0 1 0 0 0 1 0 0 0 1 0 0 0 1 0 ?0 11 12
 12 14 1 24 25 1 26 4 0 0 81 1 14 14 13 12 0 0 27 9 28 12 24 237 29 30 0 0 0 0 0
 0 0 1e3 1e-8 12 0 31 1 0 1 2 32 0 33 34 35 0 0 36 37 38 0 0 0 0 0 0 0 100 25 13
 12 0 0 .669475919412799 .0838172550456218 .738089873310185 -.0563117870271831 .
996481142699975 -.0620831288289282 -.740696277814477 2311525818228025e-32 .67184
0028601905 -.140237075928935 .0117957944774964 .0623503945656377 1 3 ?0 11 26 9
 27 1 31 39 1 40 12 0 0 81 1 27 11 13 26 0 0 41 14 42 12 31 492 43 44 0 0 0 0 0
 0 0 1e3 1e-8 26 24 45 1 0 1 2 46 0 47 48 49 0 0 50 51 52 0 0 0 0 0 0 0 100 39 1
0 26 0 0 -.652525129239941 .0838172550456213 .753117270726826 .0548860011871305
 .996481142699969 -.0633471318772161 -.7557767412299 504927959246711e-31 -.65482
93803854 -.145646938998926 .01225083557488002 .539951381801068 1 3 ?0 11 40 6 41
 1 18 53 1 54 26 0 0 81 1 41 8 13 40 0 0 55 27 56 12 18 404 57 58 0 0 0 0 0 0 0
 1e3 1e-8 40 45 10 1 0 1 2 59 0 60 61 62 0 0 63 64 65 0 0 0 0 0 0 0 100 53 7 40
 0 0 .996481142699971 .0838172550456213 -430935732210498e-33 -.0838172550456203
 .996481142699968 -102646533099076e-31 -431174578675982e-33 1026421532183812e-32
 1 0 0 0 1 2 ?0 11 54 3 55 1 45 66 1 0 40 0 0 81 1 55 5 13 54 0 0 0 41 67 12 45
 629 68 69 0 0 0 0 0 0 0 1e3 1e-8 54 31 18 1 0 1 2 70 0 71 72 73 0 0 74 75 76 0
 0 0 0 0 0 0 100 66 4 54 0 0 .595569949908294 -.2794831145153935 .75311727072682
7 -.357197957545441 -.931878082158973 -.0633471318772162 .719517931598378 -.2312
84302736874 -.654829380385401 -.1456469389989262 .01225083557488006 .53995138180
1068 1 3 ?0 81 1 68 629 5 45 77 0 0 0 78 70 69 0 4 T45 0 0 3 20 1 79 79 13 255 7
0 5 0 45 0 80 0 0 81 0 51 255 71 605 0 80 82 0 0 --3469446951953615e-33 12246467
99147354e-33 .455002 0 0 -1 .0045 -1 0 0 31 255 72 615 0 83 84 0 0 --34694469519
53615e-33 1224646799147354e-33 .455 0 0 -1 -1 0 0 .0045 29 255 73 385 0 76 85 0
 -.017 -.005 .53 19 9 CCCCCCI5 frame230 0 CA5 owner12 0 Z74 1 0 45 81 0 86 0 V0
 16 255 75 426 0 ?87 0 88 89 0 0 45 18 255 76 382 0 90 0 91 73 ?45 17 255 90 0 9
2 93 94 76 95 96 0 97 +18 91 378 0 98 76 99 85 ?45 17 98 0 100 101 102 91 103 10
4 0 105 +18 99 374 0 106 91 107 108 ?45 29 85 381 0 91 108 73 .017 -.005 .53 29
 108 377 0 99 109 85 .025 -.005 .522 29 109 373 0 107 110 108 .025 -.005 .463 18
 107 370 0 111 99 112 109 ?45 29 110 369 0 112 113 109 .017 -.005 .455 18 112 36
6 0 114 107 115 110 ?45 29 113 355 0 115 116 110 -.025 -.005 .522 18 115 352 0 1
17 112 118 113 ?45 29 116 351 0 118 119 113 -.025 -.005 .463 18 118 348 0 120 11
5 121 116 ?45 29 119 327 0 121 122 116 .025 .005 .522 18 121 324 0 123 118 124 1
19 ?45 29 122 323 0 124 125 119 .025 .005 .463 18 124 320 0 126 121 127 122 ?45
 29 125 319 0 127 128 122 .017 .005 .53 18 127 316 0 129 124 130 125 ?45 29 128
 315 0 130 131 125 -.017 .005 .53 18 130 312 0 132 127 133 128 ?45 29 131 311 0
 133 134 128 -.025 .005 .522 18 133 308 0 135 130 136 131 ?45 29 134 307 0 136 1
37 131 -.025 .005 .463 18 136 304 0 138 133 139 134 ?45 29 137 303 0 139 140 134
 .017 .005 .455 18 139 300 0 141 136 142 137 ?45 29 140 294 0 142 143 137 -.017
 -.005 .455 18 142 291 0 144 139 145 140 ?45 29 143 290 0 145 146 140 -.017 .005
 .455 18 145 287 0 147 142 148 143 ?45 29 146 257 0 149 150 143 -.015 .005 .53 1
8 149 157 0 151 152 153 146 ?45 29 150 258 0 153 154 146 -.015 .005 .465 18 153
 155 0 155 149 156 150 ?45 29 154 259 0 156 157 150 .015 .005 .465 18 156 151 0
 158 153 159 154 ?45 29 157 260 0 159 160 154 .015 .005 .53 18 159 147 0 161 156
 0 157 ?45 29 160 265 0 148 162 157 -.015 -.005 .53 18 148 153 0 163 145 164 160
 ?45 29 162 266 0 164 165 160 -.015 -.005 .465 18 164 149 0 166 148 167 162 ?45
 29 165 267 0 167 168 162 .015 -.005 .465 18 167 145 0 169 164 152 165 ?45 29 16
8 268 0 152 0 165 .015 -.005 .53 18 152 163 0 101 167 149 168 ?45 17 101 0 100 1
70 98 152 105 171 0 172 +15 255 100 212 0 173 174 0 17 170 0 100 175 101 167 176
 177 0 178 -17 105 0 179 87 172 91 101 171 0 180 -16 171 379 0 ?101 177 181 182
 0 0 45 17 172 0 179 105 161 152 183 184 0 176 -15 179 188 0 105 185 0 17 161 0
 179 172 87 159 186 187 0 183 +17 183 0 188 189 176 159 172 184 0 190 +16 184 81
 0 ?183 83 191 192 0 0 45 17 176 0 188 183 169 152 170 177 0 0 +15 188 192 0 189
 193 0 17 169 0 188 176 189 167 158 191 0 170 -16 177 78 0 ?176 194 171 195 0 0
 45 16 194 84 0 ?178 196 177 197 0 0 45 30 255 195 249 0 177 182 197 0 +.015 -.0
05 .4975 0 0 1 30 182 250 0 171 198 195 0 +.02 -.005 .53 -1 0 0 30 197 248 0 194
 195 199 0 +-520417042793042e-31 -.005 .465 1 0 0 30 199 247 0 196 197 200 0 +-.
015 -.005 .4975 106752213906265e-30 0 -1 16 196 90 0 ?201 202 194 199 0 0 45 30
 200 246 0 202 199 203 0 +-.02 -.005 .53 -1 0 0 16 202 114 0 ?97 204 196 200 0 0
 45 30 203 245 0 204 200 205 0 +-.025 -.005 .4925 0 0 1 16 204 349 0 ?206 207 20
2 203 0 0 45 30 205 244 0 208 203 209 0 +-.015 .005 .455 -1 0 0 16 208 120 0 ?21
0 211 0 205 0 0 45 30 209 243 0 211 205 212 0 +.025 .005 .4925 0 0 1 16 211 321
 0 ?213 187 208 209 0 0 45 30 212 242 0 187 209 214 0 +.02 .005 .53 -1 0 0 16 18
7 317 0 ?161 215 211 212 0 0 45 30 214 241 0 215 212 216 0 +.015 .005 .4975 0 0
 1 16 215 132 0 ?190 217 187 214 0 0 45 30 216 240 0 217 214 218 0 +-52041704279
3042e-31 .005 .465 1 0 0 16 217 129 0 ?219 220 215 216 0 0 45 30 218 239 0 220 2
16 221 0 +-.015 .005 .4975 106752213906265e-30 0 -1 16 220 126 0 ?222 223 217 21
8 0 0 45 30 221 238 0 223 218 224 0 +-.02 .005 .53 -1 0 0 16 223 96 0 ?94 225 22
0 221 0 0 45 30 224 237 0 225 221 226 0 +-.025 .005 .4925 0 0 1 16 225 305 0 ?22
7 228 223 224 0 0 45 30 226 234 0 207 224 229 0 +-.015 -.005 .53 0 1 0 16 207 99
 0 ?151 230 204 226 0 0 45 30 229 233 0 230 226 231 0 +-.015 -.005 .465 0 1 0 16
 230 93 0 ?155 191 207 229 0 0 45 30 231 232 0 191 229 192 0 +.015 -.005 .465 0
 1 0 16 191 87 0 ?158 184 230 231 0 0 45 30 192 231 0 184 231 232 0 +.015 -.005
 .53 0 1 0 30 232 297 0 233 192 234 0 +-.017 -.005 .455 0 1 0 16 233 295 0 ?235
 236 237 232 0 0 45 31 234 330 0 236 232 238 0 -.017 .005 .522 0 -1 0 0 0 -1 .00
8 16 236 328 0 ?123 239 233 234 0 0 45 31 238 335 0 239 234 240 0 -.017 .005 .46
3 0 -1 0 0 0 -1 .008 16 239 333 0 ?241 242 236 238 0 0 45 31 240 340 0 242 238 2
43 0 --.017 .005 .522 0 -1 0 0 0 -1 .008 16 242 338 0 ?132 244 239 240 0 0 45 31
 243 345 0 244 240 245 0 --.017 .005 .463 0 -1 0 0 0 -1 .008 16 244 343 0 ?138 2
46 242 243 0 0 45 30 245 358 0 246 243 247 0 +-.025 .005 .522 0 1 0 16 246 356 0
 ?248 249 244 245 0 0 45 30 247 363 0 249 245 250 0 --.025 -.005 .463 0 1 0 16 2
49 361 0 ?120 104 246 247 0 0 45 31 250 388 0 104 247 251 0 +.017 -.005 .522 0 -
1 0 0 0 -1 .008 16 104 386 0 ?98 252 249 250 0 0 45 31 251 393 0 252 250 253 0 +
.017 -.005 .463 0 -1 0 0 0 -1 .008 16 252 391 0 ?111 254 104 251 0 0 45 31 253 3
98 0 254 251 255 0 +-.017 -.005 .522 0 -1 0 0 0 -1 .008 16 254 396 0 ?117 256 25
2 253 0 0 45 31 255 403 0 256 253 257 0 +-.017 -.005 .463 0 -1 0 0 0 -1 .008 16
 256 401 0 ?144 96 254 255 0 0 45 30 257 408 0 96 255 258 0 --.017 -.005 .53 0 1
 0 16 96 406 0 ?90 259 256 257 0 0 45 30 258 413 0 259 257 260 0 -.025 -.005 .52
2 0 1 0 16 259 411 0 ?106 261 96 258 0 0 45 30 260 418 0 261 258 262 0 +.025 .00
5 .463 0 1 0 16 261 416 0 ?263 88 259 260 0 0 45 30 262 423 0 88 260 89 0 -.017
 -.005 .455 0 1 0 16 88 421 0 ?264 75 261 262 0 0 45 30 89 428 0 75 262 84 0 +.0
17 -.005 .53 0 1 0 31 84 614 0 237 89 72 0 --3469446951953615e-33 12246467991473
54e-33 .425 0 0 -1 -1 0 0 .0045 16 237 18 0 ?265 233 83 84 0 0 45 17 265 0 266 2
65 265 0 267 237 0 0 +16 83 22 0 ?268 237 184 72 0 0 45 17 268 0 269 268 268 0 2
70 83 0 0 +15 269 619 0 268 271 272 17 270 0 273 270 270 0 268 83 0 0 -15 273 12
 0 270 80 0 14 255 80 9 0 ?274 0 266 70 71 -0 0 274 0 86 14 274 13 0 ?271 80 275
 70 276 +0 0 271 80 86 15 266 11 0 265 80 273 13 86 3 0 0 0 0 0 0 74 80 14 271 1
73 0 ?277 274 269 70 278 +0 0 277 274 86 15 275 17 0 267 274 0 50 255 276 23 0 2
74 278 279 0 +-.005 0 .425 0 0 -1 1 0 0 50 278 219 0 271 280 276 0 +-.015 -.005
 .455 0 0 -1 -1 0 0 51 279 458 0 281 276 282 0 +-.017 -.005 .463 0 1 0 .008 0 0
 1 14 281 446 0 ?283 284 285 70 279 +0 0 283 284 86 51 282 479 0 283 279 286 0 +
-.017 -.005 .522 0 -1 0 .008 0 0 -1 14 283 467 0 ?287 281 288 70 282 +0 0 287 28
1 86 51 286 500 0 287 282 82 0 +.017 -.005 .463 0 -1 0 .008 0 0 -1 14 287 488 0
 ?289 283 290 70 286 +0 0 289 283 86 51 82 521 0 289 286 71 0 +.017 -.005 .522 0
 1 0 .008 0 0 1 14 289 509 0 ?0 287 291 70 82 +0 0 0 287 86 15 291 510 0 103 289
 0 17 103 0 291 292 180 99 98 104 0 0 -17 292 0 291 129 103 121 106 259 0 0 -17
 180 0 291 103 129 91 87 75 0 0 -17 129 0 291 180 292 127 123 236 0 87 -17 87 0
 179 161 105 127 180 75 0 186 +17 186 0 293 123 190 127 161 187 0 0 -15 293 216
 0 210 284 0 17 123 0 293 294 186 121 129 236 0 213 +17 190 0 293 186 219 159 18
9 215 0 0 +17 219 0 293 190 222 156 295 217 0 0 +17 189 0 188 169 183 156 190 21
5 0 219 -17 222 0 293 219 296 153 297 220 0 0 +17 295 0 298 166 158 153 219 217
 0 222 -15 298 196 0 295 299 0 17 166 0 298 178 295 164 155 230 0 175 -17 158 0
 298 295 178 156 169 191 0 189 +17 178 0 298 158 166 167 175 194 0 0 +17 175 0 1
00 300 170 164 178 194 0 201 -17 300 0 100 97 175 148 201 196 0 0 -17 201 0 301
 155 163 164 300 196 0 0 +15 301 200 0 297 302 0 17 155 0 301 297 201 153 166 23
0 0 295 +17 163 0 301 201 297 148 151 207 0 93 -17 297 0 301 163 155 149 222 220
 0 0 -17 151 0 92 94 93 149 163 207 0 296 +17 93 0 92 151 90 148 97 202 0 300 -1
5 92 204 0 94 303 0 17 97 0 100 117 300 76 93 202 0 304 +17 117 0 100 173 97 115
 304 254 0 206 +17 304 0 288 95 305 76 117 254 0 0 -15 288 468 0 304 283 0 17 95
 0 288 135 304 130 90 96 0 0 -17 305 0 288 304 135 115 248 246 0 0 -17 135 0 288
 305 95 133 132 242 0 248 -17 248 0 306 307 206 133 305 246 0 227 +15 306 208 0
 307 308 0 17 307 0 306 120 248 136 227 225 0 309 -17 206 0 306 248 120 115 173
 204 0 305 +17 227 0 293 132 138 133 307 225 0 0 +17 132 0 293 296 227 130 135 2
42 0 94 +17 138 0 293 227 210 136 147 244 0 307 +17 210 0 293 138 241 145 141 20
8 0 0 +17 147 0 285 310 309 145 138 244 0 235 -15 285 447 0 311 281 0 17 310 0 2
85 311 147 142 235 233 0 0 -17 309 0 285 147 311 136 120 249 0 0 -17 235 0 272 1
41 312 145 310 233 0 210 +15 272 176 0 312 271 0 17 141 0 272 264 235 139 210 20
8 0 241 -17 312 0 272 235 264 142 114 228 0 310 +17 264 0 272 312 141 112 313 88
 0 314 +17 114 0 100 111 144 112 312 228 0 264 -16 228 54 0 ?312 181 225 315 0 0
 45 16 181 371 0 ?102 171 228 198 0 0 45 30 315 252 0 228 0 198 0 +-.015 -.005 .
455 -1 0 0 30 198 251 0 181 315 182 0 +.025 -.005 .4925 0 0 1 17 102 0 100 98 11
1 99 316 181 0 103 +17 111 0 100 102 114 107 314 252 0 316 +17 316 0 317 263 106
 107 102 181 0 318 -15 317 184 0 316 277 0 17 263 0 317 213 316 124 318 261 0 29
4 +17 106 0 317 316 213 99 292 259 0 102 +17 318 0 290 314 126 107 263 261 0 0 -
15 290 489 0 314 287 0 17 314 0 290 313 318 112 111 252 0 0 -17 126 0 290 318 31
3 124 241 239 0 263 -17 313 0 290 126 314 139 264 88 0 0 -17 241 0 293 210 294 1
39 126 239 0 313 +17 294 0 293 241 123 124 213 211 0 0 -17 213 0 317 106 263 121
 294 211 0 292 +14 277 181 0 ?185 271 317 70 280 -0 0 185 271 86 14 185 185 0 ?1
93 277 179 70 319 -0 0 193 277 86 50 280 220 0 277 319 278 0 +.025 -.005 .4925 -
1 0 0 0 0 1 50 319 221 0 185 320 280 0 +.02 -.005 .53 0 0 -1 -1 0 0 50 320 222 0
 193 321 319 0 +.015 -.005 .4975 -1 0 0 0 0 1 14 193 189 0 ?299 185 188 70 320 +
0 0 299 185 86 50 321 223 0 299 322 320 0 +-520417042793042e-31 -.005 .465 0 0 1
 1 0 0 14 299 193 0 ?302 193 298 70 321 +0 0 302 193 86 50 322 224 0 302 323 321
 0 +-.015 -.005 .4975 1 0 106752213906265e-30 106752213906265e-30 0 -1 14 302 19
7 0 ?303 299 301 70 322 +0 0 303 299 86 50 323 225 0 303 324 322 0 +-.02 -.005 .
53 0 0 -1 -1 0 0 14 303 201 0 ?308 302 92 70 323 -0 0 308 302 86 50 324 226 0 30
8 325 323 0 +-.025 -.005 .4925 -1 0 0 0 0 1 14 308 205 0 ?174 303 306 70 324 +0
 0 174 303 86 50 325 227 0 284 326 324 0 +-.0125 .005 .265 0 -1 0 1 0 0 14 284 2
13 0 ?281 174 293 70 325 -0 0 281 174 86 50 326 228 0 174 0 325 0 +-.0125 -.005
 .265 0 -1 0 1 0 0 14 174 209 0 ?284 308 100 70 326 +0 0 284 308 86 17 144 0 100
 114 173 142 311 256 0 312 +17 173 0 100 144 117 118 206 204 0 311 -17 311 0 285
 309 310 118 144 256 0 0 -17 120 0 306 206 307 118 309 249 0 173 +17 296 0 293 2
22 132 149 94 223 0 297 -17 94 0 92 90 151 130 296 223 0 95 +17 267 0 275 267 26
7 0 265 237 0 0 -19 81 4 0 45 0 74 70 0 S0 74 4 CI16 index_map_offset0 0 1 dCCZ2
0 79 3 0 0 327 77 68 0 0 0 0 0 0 0 0 0 0 0 0 0 0 0 0 0 81 1 327 627 328 45 0 77
 0 0 329 81 1 77 628 330 45 327 68 0 0 331 80 7 CCCCCDI12 legal_owners0 17 1 lCZ
1 330 5 332 8038 0 0 0 0 0 0 0 0 0 TTTTTTTTTTTTTFTFT10 98 255 6 331 80 97 114 11
6 32 53 79 255 14 332 SDL/TYSA_UNAME80 1 328 333 334 8040 0 0 0 0 3 5 0 0 0 TTTF
FFFFFFFFFFFFF2 83 255 3 329 .768627450980392 .886274509803922 .952941176470588 7
9 17 334 SDL/TYSA_COLOUR_280 1 5 335 336 8017 0 0 0 0 0 0 0 0 0 TTTTTTTTTTTTTFTF
T3 84 255 6 78 Part 579 13 336 SDL/TYSA_NAME80 1 13 337 338 9000 0 0 0 0 3 5 0 0
 0 FTFFFFFFFFFFFFFFF3 84 17 67 MwmpzZkIIWXJirKPv79 14 338 BTI/InstanceId81 1 57
 404 5 18 339 0 0 0 340 70 58 0 4 T18 0 0 3 20 1 341 341 13 59 5 0 18 0 342 0 0
 343 0 59 255 60 399 0 18 344 0 345 +1 346 31 61 400 0 347 348 0 0 -.0345 236421
3861027965e-37 .1241745958354986 0 -1 0 0 0 -1 .015 29 62 386 0 65 349 0 .0495 0
 .1241745958354986 19 63 1 0 18 343 0 350 0 V0 16 64 222 0 ?351 0 347 352 0 0 18
 18 65 208 0 353 0 354 62 ?18 17 353 0 355 356 357 65 358 359 0 360 -18 354 204
 0 361 65 362 363 ?18 17 361 0 364 351 365 354 366 367 0 356 +18 362 194 0 368 3
54 369 349 ?18 29 363 383 0 354 370 371 -.0495 0 .1241745958354986 29 370 382 0
 372 373 363 -.0495 0 .21 29 371 384 0 369 363 349 -.0289054054054054 0 .1380922
289432556 18 369 190 0 351 362 372 371 ?18 29 349 385 0 362 371 62 .028905405405
4054 0 .1380922289432556 17 351 0 364 374 361 369 375 64 0 376 +18 372 113 0 365
 369 377 370 ?18 17 365 0 364 361 358 372 378 379 0 366 -18 377 114 0 358 372 0
 373 ?18 17 358 0 364 365 360 377 353 359 0 378 +29 373 381 0 377 0 370 .0495 0
 .21 15 364 129 0 361 380 0 17 360 0 364 358 374 65 368 347 0 381 +16 359 46 0 ?
358 367 382 383 0 0 18 17 378 0 384 385 385 377 365 379 0 357 +15 384 8 0 385 34
2 0 17 385 0 384 378 378 372 357 386 0 0 +16 379 91 0 ?378 387 388 389 0 0 18 17
 357 0 355 353 366 377 385 386 0 0 -15 355 54 0 353 390 0 17 366 0 355 357 356 3
72 361 367 0 385 -16 386 22 0 ?385 382 387 391 0 0 18 16 382 18 0 ?392 359 386 3
93 0 0 18 16 387 82 0 ?394 386 379 395 0 0 18 31 391 395 0 386 383 396 0 +-12706
20271401584e-32 0 .21 -1224646799147352e-31 0 1 1 0 1224646799147352e-31 .0495 3
0 383 394 0 359 393 391 0 -.0495 0 .210002 1224646799147352e-31 0 -1 30 396 396
 0 367 391 352 0 +-.0495 0 .21 1224646799147352e-31 0 -1 16 367 53 0 ?361 397 35
9 396 0 0 18 31 352 397 0 64 396 348 0 --.0345 -1108583217642928e-33 .1241745958
354986 0 -1 0 0 0 -1 .015 38 12 CCCCCCCCCCCA17 intersection_data204 0 Z348 398 0
 397 352 61 0 +60 398 399 400 401 402 16 397 198 0 ?403 404 367 348 0 0 18 51 39
8 152 0 405 406 407 408 -277555756156289e-31 -.3479773116831525 .21 0 1 0 .0775
 0 0 1 40 255 12 399 0 1 12 .00197584250770465 .397369719692958 ??-.028905405405
4054 0 .1380922289432556 -.027739863819963 -.00969807949154223 .137634608028078
 -.023354951897124 -.0203278034189532 .1361027996343364 -.01660349012297695 -.02
824064060779195 .1342994444159344 -.00832876767359004 -.0330368090072382 .132948
8375880068 .000891125141202714 -.03448360121805745 .1325051234210756 .0096756351
4049917 -.03250978118810855 .1331063586203128 .01117120323385232 -.0318193526290
3885 .133309360295353 .019482161630911 -.02548632027302885 .1349886983302712 .02
525170069916955 -.01678937298773015 .1367292581462452 .02834738146783675 -.00674
62861870581 .1378704224058054 .0289054054054054 35494819402049e-32 .138092228943
2556 41 3 CI8 term_use0 0 1 cCZ1 400 L?-.0289054054054054 0 .1380922289432556 41
 1 401 L?.0289054054054054 35494819402049e-32 .1380922289432556 204 2 17 INTERSE
CTION_DATA17 Intersection data7 uv_type0 0 1 u6 values0 1 1 fT24 402 3 3.5238037
9838761 .3479773116831525 3.507646722388555 .33827923219161 3.447705231336195 .3
27649508264199 3.357504899610445 .3197366710753605 3.24926857060097 .31494050267
5914 3.130094011283325 .313493710465095 3.016419126139455 .3154675304950435 2.99
694420574389 .3161579590541135 2.88748405643007 .3224909914101235 2.809704845700
875 .331187938695422 2.767129792844735 .341231025496094 2.75938150879198 .347977
3116831525 14 405 135 0 ?380 409 410 59 398 +0 0 380 409 350 50 406 153 0 380 0
 398 0 +277555756156289e-31 0 .21 0 -1 0 1 0 0 50 407 23 0 411 398 412 0 +-.025
 0 .03 1224646799147352e-31 0 -1 -1 0 -1224646799147352e-31 141 255 408 348 413
 413 398 141 413 346 408 408 398 56 255 346 389 0 414 415 416 417 +R398 416 418
 -.015 .015 1 1 0 0 0 0 14 414 331 0 ?0 419 420 59 346 +0 0 0 419 350 59 415 388
 0 18 421 346 422 +0 346 51 416 380 0 390 346 423 424 --1270644764337568e-32 0 .
210002 1224646799147352e-31 0 -1 .0495 -1 0 -1224646799147352e-31 141 417 415 42
5 425 346 38 418 390 0 18 426 393 427 -423 344 428 429 429 430 38 426 387 0 404
 395 418 0 +415 416 431 432 433 434 31 393 393 0 382 418 383 0 -93374396706365e-
31 0 .03 1224646799147352e-31 0 -1 -1 0 -1224646799147352e-31 .0495 141 427 346
 427 427 418 51 423 391 0 18 416 344 435 -277555756156289e-31 -.3479773116831525
 .21 0 1 0 .0925 0 0 1 51 344 392 0 18 423 60 436 --1270644764337568e-32 0 .2100
02 1224646799147352e-31 0 -1 .0345 -1 0 -1224646799147352e-31 40 20 428 0 1 20 .
0024267176209539 .384671140369054 ??-.0071250249915246 .033756244146382 .1177748
189545276 .00424397485538499 .03423797128082885 .1175974097904888 .0146576094124
864 .0312314662849984 .1186687102559534 .02372635485003585 .02504615909735825 .1
205946864804436 .030685051867058 .01576951463793235 .1227378799712272 .034211457
2253612 .004452661509398925 .1240591703873108 .0338339714293535 -.00674628618705
811 .1239098590004774 .0301391266409443 -.01678937298773015 .122547824239067 .02
32529025917325 -.02548632027302885 .1204703818780656 .0133333716016947 -.0318193
5262903885 .118466010675099 .00106360097498388 -.03448360121805745 .117506115050
9612 -.00994078722331715 -.0330368090072382 .118035709379234 -.01981706885645635
 -.02824064060779195 .1196477239803088 -.0278752651675351 -.0203278034189532 .12
18001156925952 -.033108869720601 -.00969807949154223 .1236284031302866 -.0344532
012937111 .001796363163456485 .1241557985614926 -.0321999444075589 .012386023581
0416 .1232854477025332 -.0267794064325798 .02175116987931235 .1214612322701592 -
.0181440461986327 .02934354422256935 .1192969483008324 -.0071250249915246 .03375
6244146382 .1177748189545276 41 1 429 H?-.0071250249915246 .033756244146382 .117
7748189545276 204 80 430 4 3.21869632467011 .3817335558295345 1.362776866177862
 .0922271810454723 3.09569573218581 .382215282963981 1.694122471236585 .09240459
02095112 2.982461252279745 .3792087779681505 2.009601614977835 .0913332897440466
 2.882192175755015 .3730234707805105 2.329140681954505 .0894073135195564 2.80345
5517940635 .3637468263210845 2.66687495450493 .0872641200287729 2.76274122038231
 .352429973192551 3.01216898541444 .0859428296126892 2.767129792844735 .34123102
5496094 3.33840531933737 .0860921409995226 2.809704845700875 .331187938695422 3.
649841846748255 .087454175760933 2.88748405643007 .3224909914101235 3.9727826096
3516 .0895316181219344 2.99694420574389 .3161579590541135 4.31558292938808 .0915
359893249012 3.130094011283325 .313493710465095 4.68155508106713 .09249588494903
87 3.24926857060097 .314940502675914 5.00467157449829 .0919662906207661 3.357504
899610445 .3197366710753605 5.32426947862651 .0903542760196912 3.447705231336195
 .327649508264199 5.65310246670494 .0882018843074049 3.507646722388555 .33827923
219161 5.99824126177254 .0863735968697133 3.52325858008918 .349773674846609 .052
0920536388253 .0858462014385073 3.497144241829565 .360363335264194 .367212508904
3275 .0867165522974669 3.435304495232155 .3697284815624645 .682156881292894 .088
5407677298408 3.339024636539605 .3773208559057215 1.017006506215162 .09070505169
91676 3.21869632467011 .3817335558295345 1.362776866177862 .0922271810454723 141
 436 418 436 436 344 141 435 418 435 435 423 16 404 209 0 ?356 347 397 426 0 0 1
8 38 395 376 0 387 437 426 0 +438 421 439 440 440 441 40 11 431 0 1 11 .00337858
415112638 .375234203894436 ??.0495 0 .1241745958354986 .048544393789942 -.009679
45409447467 .1239098590004774 .0432430947457027 -.02408910037369975 .12254782423
9067 .03336286024031185 -.0365673290873892 .1204703818780656 .01913048968938805
 -.0456538537720992 .1184660106750988 .00152603618149861 -.0494764713128651 .117
5061150509612 -.0142628686247594 -.0474006390103852 .118035709379234 -.028433185
7505678 -.04051918000248415 .1196477239803088 -.03999494567515905 -.029165978818
49805 .121800115692595 -.0475040304686884 -.01391463579221276 .1236284031302866
 -.0495 981073560478014e-33 .1241745958354986 41 1 432 L?.0495 0 .12417459583549
86 41 1 433 L?-.0495 981073560478014e-33 .1241745958354986 204 22 434 3 3.141592
653589795 .0858274041645013 3.33840531933737 .0860921409995227 3.649841846748255
 .087454175760933 3.97278260963516 .0895316181219344 4.31558292938808 .091535989
3249012 4.68155508106713 .0924958849490387 5.00467157449829 .0919662906207661 5.
32426947862651 .0903542760196912 5.65310246670494 .0882018843074049 5.9982412617
7254 .0863735968697133 198196678884447e-31 .0858274041645013 31 437 375 0 442 38
9 395 0 +693889390390723e-32 0 .19 0 -1 0 0 0 -1 .012 51 438 26 0 419 412 421 44
3 --1270644764337568e-32 0 .210002 1224646799147352e-31 0 -1 .05 -1 0 -122464679
9147352e-31 51 421 374 0 409 438 415 444 -693889390390723e-32 -.3479773116831525
 .19 0 1 0 .012 0 0 1 40 20 439 0 1 20 .000704626383753868 .3467029766159955 ??-
.001623201352634905 -.049973645227948 .1781102894329255 .0023151542698953 -.0499
463718472782 .178225448598499 .00599218687087395 -.0496396383599289 .17960318815
6722 .00904987685760766 -.0491741774599448 .182119661881484 .0111574357455185 -.
048739220629639 .1855828031983365 .01199135418609452 -.0485407810483477 .1895445
60889214 .0114911259241347 -.0486616278498334 .193457459326685 .0097707571409137
6 -.0490360306804424 .196966513108671 .00694493864903314 -.0495153292139027 .199
786103778377 .00327627068684009 -.0498925450381773 .201544091579096 -.0007199967
37104185 -.0499948157782241 .2019783807210555 -.0045472738343848 -.0497927936620
865 .201105057436822 -.00788908065010918 -.0493737015676977 .199042256714785 -.0
1043277535364374 -.0488994601035677 .195929350590107 -.01181435273227094 -.04858
41648020987 .192102633947572 -.0118508028118343 -.0485752866457319 .188113608546
717 -.0106169389315092 -.0488598056455877 .1844070930881515 -.00822689783940649
 -.0493185376095031 .181263973904574 -.00485344841203348 -.0497638828721366 .179
025300071905 -.0016232013526349 -.049973645227948 .1781102894329255 41 1 440 H?-
.0016232013526349 -.049973645227948 .1781102894329255 204 80 441 4 4.74485871252
047 .03189171056707455 3.27727536515358 .2980036664552045 4.66606933355506 .0317
7655140150085 2.947445764083045 .298030939835874 4.59225649646504 .0303988118432
7805 2.61874553366549 .2983376733232235 4.53038833399713 .0278823381185161 2.287
22409102509 .2988031342232075 4.487345532246345 .02441919680166355 1.94776075162
571 .2992380910535135 4.47020124770279 .0204574391107862 1.608758703566315 .2994
365306348045 4.480493664355775 .0165445406733152 1.278531641720394 .299315683833
319 4.51570824420202 .01303548689132916 .951401202393239 .29894128100271 4.57303
96587937 .01021589622162294 .617188793746148 .2984619824692495 4.64681658605348
 .00845790842090413 .276533563519554 .298084766644975 4.72678941283045 .00802361
927894429 6.22314952113305 .297982495904928 4.80346029555452 .00889694256317786
 5.89453525922981 .298184518021066 4.87083270117379 .01095974328521512 5.5657910
97408 .2986036101154545 4.92258898571638 .01407264940989292 5.22920275076995 .29
90778515795845 4.95093189748758 .01789936605242815 4.88851768884826 .29939314688
10535 4.95168221209538 .02188839145328325 4.55453494379117 .2994020250374205 4.9
2635667686251 .0255949069118486 4.22753906738669 .2991175060375645 4.87767854584
768 .0287380260954263 3.896985644668195 .298658774073649 4.80961103547575 .03097
669992809505 3.55797443340607 .2982134288110155 4.74485871252047 .03189171056707
455 3.27727536515358 .2980036664552045 14 409 130 0 ?405 411 445 59 421 -0 0 405
 411 350 141 444 395 444 444 421 14 411 13 0 ?409 390 446 59 407 +0 0 409 390 35
0 15 445 119 0 447 409 448 13 350 3 0 0 0 0 0 0 63 342 14 342 6 0 ?390 0 384 59
 412 +0 0 390 0 350 14 390 56 0 ?411 342 449 59 416 -0 0 411 342 350 50 412 25 0
 342 407 438 0 +-142068774780244e-32 0 .21 -1224646799147352e-31 0 1 1 0 1224646
799147352e-31 15 449 11 0 392 390 355 17 392 0 449 392 392 0 450 382 0 0 +17 450
 0 446 450 450 0 392 382 0 0 -15 446 17 0 450 411 0 17 447 0 445 447 447 0 451 4
42 0 0 +15 448 120 0 452 409 0 17 452 0 448 452 452 0 394 387 0 0 -17 394 0 453
 394 394 0 452 387 0 0 +15 453 60 0 394 419 0 14 419 9 0 ?414 380 453 59 438 -0
 0 414 380 350 14 380 145 0 ?419 405 454 59 406 +0 0 419 405 350 15 454 128 0 45
1 380 364 17 451 0 454 451 451 0 447 442 0 0 -16 442 88 0 ?447 388 0 437 0 0 18
 16 388 191 0 ?374 379 442 455 0 0 18 17 374 0 364 360 351 362 376 388 0 0 +31 4
55 156 0 388 0 389 0 +277555756156289e-31 0 .21 0 -1 0 0 0 -1 .0775 30 389 155 0
 379 455 437 0 +-142068774780244e-32 0 .21 1 0 1224646799147352e-31 17 376 0 410
 403 403 369 374 388 0 456 -15 410 124 0 376 405 0 17 403 0 410 376 376 362 456
 397 0 374 +17 456 0 420 375 368 369 403 397 0 0 -15 420 332 0 375 414 0 17 375
 0 420 381 456 354 351 64 0 0 -17 368 0 420 456 381 362 360 347 0 403 -17 381 0
 420 368 375 65 356 404 0 0 -16 347 218 0 ?360 64 404 61 0 0 18 17 356 0 355 366
 353 354 381 404 0 375 +141 443 395 443 443 438 141 425 60 417 417 346 141 424 3
46 457 457 416 141 457 426 424 424 416 141 422 426 422 422 415 19 343 4 0 18 0 6
3 59 0 S0 141 345 348 345 345 60 74 20 341 3 0 0 458 339 57 0 0 0 0 0 0 0 0 0 0
 0 0 0 0 0 0 0 81 1 458 402 328 18 0 339 0 0 459 81 1 339 403 330 18 458 57 0 0
 460 98 6 460 80 97 114 116 32 50 83 3 459 .647058823529412 .647058823529412 .64
7058823529412 84 6 340 Part 284 17 56 M5Z6qXfXf1nKECkZ781 1 43 492 5 31 461 0 0
 0 462 70 44 0 4 T31 0 0 3 20 1 463 463 13 46 64 0 31 0 464 0 0 465 0 50 47 167
 0 464 466 0 0 +-.03 .02 .4 1 0 0 0 0 -1 30 48 264 0 51 467 0 0 +.015 0 .41 0 0
 1 29 49 258 0 52 468 0 -.015 0 .41 19 50 63 0 31 465 0 469 0 V0 16 51 262 0 ?47
0 0 471 48 0 0 31 18 52 256 0 472 0 473 49 ?31 17 472 0 474 475 475 52 476 477 0
 478 -18 473 57 0 479 52 480 481 ?31 17 479 0 482 483 484 473 485 486 0 487 -18
 480 52 0 488 473 489 490 ?31 29 481 59 0 473 490 491 -.03 .02 .44 29 490 54 0 4
80 492 481 .03 .02 .44 29 491 146 0 493 481 494 -.03 0 .36 18 493 133 0 495 496
 497 491 ?31 29 494 145 0 496 491 498 .03 0 .36 18 496 129 0 499 500 493 494 ?31
 29 498 144 0 500 494 468 .03 0 .44 18 500 125 0 501 502 496 498 ?31 29 468 143
 0 502 498 49 -.03 0 .44 18 502 121 0 485 503 500 468 ?31 17 485 0 504 505 487 5
02 479 486 0 506 +18 503 42 0 507 489 502 508 ?31 17 507 0 509 510 511 503 495 5
12 0 513 -18 489 47 0 514 480 503 492 ?31 29 508 44 0 503 515 492 -.03 .02 .36 2
9 515 346 0 497 516 508 -.015 0 .44 29 492 49 0 489 508 490 .03 .02 .36 18 497 3
11 0 517 493 518 515 ?31 29 516 347 0 518 519 515 .015 918485099360515e-33 .44 1
8 518 314 0 470 497 520 516 ?31 29 519 349 0 520 0 516 .015 0 .41 18 520 312 0 4
75 518 0 519 ?31 17 475 0 474 472 472 520 521 522 0 476 -15 474 334 0 475 523 0
 17 521 0 524 525 526 52 475 522 0 0 +16 522 257 0 ?521 471 512 527 0 0 31 17 47
6 0 528 470 478 520 472 477 0 526 +15 528 330 0 476 529 0 17 470 0 528 517 476 5
18 526 51 0 530 +17 478 0 528 476 517 52 525 471 0 521 +16 477 288 0 ?476 531 53
2 533 0 0 31 17 526 0 524 521 534 520 470 51 0 0 -15 524 263 0 526 535 536 17 53
4 0 524 526 537 518 501 538 0 0 -17 537 0 524 534 539 500 540 541 0 0 -17 501 0
 504 488 530 500 534 538 0 542 +16 538 249 0 ?501 543 541 544 543 543 31 16 543
 109 0 ?505 545 538 544 538 538 31 16 541 113 0 ?540 538 531 546 0 0 31 30 544 1
40 0 543 546 547 0 +0 0 .44 1 0 0 30 546 141 0 541 548 544 0 +.03 0 .4 130104260
6982606e-31 0 -1 31 547 139 0 545 544 549 0 +693889390390723e-32 0 .36 0 -1 0 0
 0 -1 .0125 16 545 105 0 ?550 551 543 547 0 0 31 31 549 138 0 551 547 552 0 +346
9446951953615e-32 0 .36 0 -1 0 0 0 -1 .03 16 551 101 0 ?539 553 545 549 0 0 31 3
0 552 168 0 486 549 554 0 +-.03 .02 .44 0 -1 0 16 486 147 0 ?485 555 556 552 0 0
 31 30 554 169 0 555 552 557 0 +.03 .02 .44 0 -1 0 16 555 148 0 ?542 558 486 554
 0 0 31 30 557 170 0 558 554 559 0 +.03 .02 .36 0 -1 0 16 558 149 0 ?499 512 555
 557 0 0 31 30 559 171 0 512 557 527 0 +-.03 .02 .36 0 -1 0 16 512 150 0 ?495 52
2 558 559 0 0 31 30 527 259 0 522 559 467 0 +3469446951953615e-32 0 .41 -1 0 0 3
0 467 261 0 471 527 48 0 --.015 0 .41 0 0 1 16 471 260 0 ?478 51 522 467 0 0 31
 17 495 0 482 484 483 493 507 512 0 511 +15 482 161 0 484 464 0 17 484 0 482 479
 495 502 560 531 0 0 +17 483 0 482 495 479 503 561 553 0 0 -17 511 0 509 507 499
 493 539 551 0 560 -15 509 151 0 511 562 0 17 499 0 509 511 510 496 514 558 0 54
0 +17 539 0 524 537 560 496 511 551 0 0 +17 560 0 524 539 506 493 484 531 0 0 -1
7 506 0 524 560 525 502 505 543 0 484 -16 531 117 0 ?484 541 477 548 0 0 31 30 5
48 142 0 531 563 546 0 +-.03 0 .4 0 0 1 31 563 39 0 556 564 548 0 +3469446951953
615e-32 .02 .36 0 -1 0 0 0 -1 .03 16 556 37 0 ?510 486 565 563 0 0 31 31 564 34
 0 565 566 563 0 +693889390390723e-32 .02 .36 0 -1 0 0 0 -1 .0125 16 565 32 0 ?5
67 556 568 564 0 0 31 30 566 29 0 568 569 564 0 +0 .02 .44 1 0 0 16 568 27 0 ?57
0 565 571 566 0 0 31 30 569 24 0 571 572 566 0 +.03 .02 .4 1301042606982606e-31
 0 -1 16 571 22 0 ?573 568 553 569 0 0 31 30 572 14 0 553 574 569 0 +-.03 .02 .4
 0 0 1 16 553 12 0 ?561 571 551 572 0 0 31 31 574 344 0 532 533 572 0 +-34694469
51953615e-33 918485099360515e-33 .44 0 0 1 1 0 0 .015 16 532 303 0 ?530 477 575
 574 0 0 31 31 533 345 0 477 576 574 0 +-3469446951953615e-33 918485099360515e-3
3 .41 0 0 1 1 0 0 .015 31 576 438 0 577 578 533 0 --3469446951953615e-33 1224646
799147354e-33 .425 0 0 -1 -1 0 0 .005 16 577 417 0 ?579 575 0 576 0 0 31 31 578
 439 0 575 0 576 0 +-3469446951953615e-33 1224646799147354e-33 .44 0 0 1 1 0 0 .
005 16 575 412 0 ?580 532 577 578 0 0 31 17 580 0 581 580 580 0 582 575 0 0 +15
 581 431 0 580 583 584 17 582 0 585 582 582 0 580 575 0 0 -15 585 403 0 582 586
 504 14 586 158 0 ?587 588 585 46 589 -0 0 587 588 469 15 504 157 0 505 586 0 17
 505 0 504 530 485 497 506 543 0 0 +17 530 0 504 501 505 518 517 532 0 534 +17 5
17 0 528 478 470 497 530 532 0 525 -17 525 0 524 506 521 497 478 471 0 505 -14 5
87 154 0 ?590 586 591 46 592 -0 0 590 586 469 14 588 160 0 ?586 562 593 46 466 -
0 0 586 562 469 50 589 165 0 586 592 466 0 +0 .02 .44 0 0 -1 -1 0 0 13 469 172 0
 0 0 0 0 0 50 464 14 464 162 0 ?562 0 482 46 47 -0 0 562 0 469 14 562 152 0 ?588
 464 509 46 594 +0 0 588 464 469 51 594 163 0 562 595 592 0 +3469446951953615e-3
2 .02 .36 0 -1 0 .03 0 0 -1 50 595 137 0 535 596 594 0 +3469446951953615e-32 0 .
385 0 -1 0 1 0 0 51 592 164 0 587 594 589 0 +693889390390723e-32 .02 .36 0 -1 0
 .0125 0 0 -1 14 535 90 0 ?529 590 524 46 595 +0 0 529 590 469 50 596 3 0 590 59
7 595 0 +3469446951953615e-32 .02 .385 0 -1 0 1 0 0 14 590 1 0 ?535 587 598 46 5
96 -0 0 535 587 469 51 597 341 0 529 599 596 0 +-3469446951953615e-33 9184850993
60515e-33 .41 0 0 1 .015 1 0 0 14 529 327 0 ?523 535 528 46 597 +0 0 523 535 469
 50 599 343 0 523 600 597 0 +0 .0025 .41 0 0 1 1 0 0 14 523 331 0 ?601 529 474 4
6 599 -0 0 583 529 469 51 600 435 0 583 602 599 0 +-3469446951953615e-33 1224646
799147354e-33 .424998 0 0 1 .005 1 0 0 14 583 428 0 ?0 601 581 46 600 -0 0 601 5
23 469 50 602 436 0 601 0 600 0 +-.005 0 .425 0 0 -1 1 0 0 14 601 420 0 ?583 523
 603 46 602 -0 0 0 583 469 15 603 423 0 579 601 0 17 579 0 603 579 579 0 604 577
 0 0 +17 604 0 584 604 604 0 579 577 0 0 -15 584 432 0 604 583 0 15 598 6 0 561
 590 605 17 561 0 598 570 513 473 483 553 0 0 +15 605 10 0 567 590 0 17 567 0 60
5 567 567 0 606 565 0 0 +17 606 0 591 606 606 0 567 565 0 0 -15 591 153 0 606 58
7 607 15 607 155 0 550 587 0 17 550 0 607 550 550 0 608 545 0 0 +17 608 0 536 60
8 608 0 550 545 0 0 -15 536 100 0 608 535 0 17 570 0 598 573 561 480 487 568 0 0
 +17 513 0 598 561 573 503 510 556 0 483 -17 573 0 598 513 570 489 609 571 0 0 +
17 510 0 509 499 507 489 513 556 0 573 +17 609 0 593 542 514 480 573 571 0 570 -
15 593 159 0 540 588 0 17 542 0 593 540 609 500 488 555 0 537 +17 514 0 593 609
 540 489 499 558 0 510 -17 540 0 593 514 542 496 537 541 0 539 +17 488 0 504 487
 501 480 542 555 0 609 -17 487 0 504 485 488 473 570 568 0 561 -50 466 166 0 588
 589 47 0 +.03 .02 .4 -1 0 -1301042606982606e-31 -1301042606982606e-31 0 1 19 46
5 173 0 31 0 50 46 0 S0 74 20 463 3 0 0 610 461 43 0 0 0 0 0 0 0 0 0 0 0 0 0 0 0
 0 0 81 1 610 490 328 31 0 461 0 0 611 81 1 461 491 330 31 610 43 0 0 612 98 6 6
12 80 97 114 116 32 52 83 3 611 .917647058823529 .917647058823529 .9176470588235
29 84 6 462 Part 484 17 42 Mrpb+ihP4vvX5g+Gx81 1 29 237 5 24 613 0 0 0 614 70 30
 0 4 T24 0 0 3 20 1 615 615 13 32 183 0 24 0 616 0 0 617 0 51 33 178 0 618 619 0
 0 -693889390390723e-32 -.035 .19 0 1 0 .0125 0 0 1 30 34 182 0 37 620 0 0 +-.03
5 -.035 .36 0 1 0 29 35 149 0 621 622 0 .035 0 .36 19 36 60 0 24 617 0 623 0 V0
 16 37 156 0 ?624 0 625 34 0 0 24 18 38 54 0 626 0 627 628 ?24 17 626 0 629 630
 631 38 632 633 0 634 +18 627 49 0 631 38 635 636 ?24 29 628 56 0 38 636 637 .03
5 -.035 .36 29 636 51 0 627 638 628 .035 -.035 .19 29 637 152 0 639 628 640 -.03
5 0 .36 18 639 138 0 641 642 0 637 ?24 29 640 151 0 642 637 622 -.035 0 .19 18 6
42 134 0 643 644 639 640 ?24 29 622 150 0 644 640 35 .035 0 .19 18 644 130 0 645
 621 642 622 ?24 17 645 0 646 647 648 644 649 650 0 651 +18 621 126 0 652 653 64
4 35 ?24 17 652 0 654 634 651 621 655 656 0 657 +18 653 39 0 658 635 621 659 ?24
 17 658 0 660 624 661 653 662 663 0 630 -18 635 44 0 662 627 653 638 ?24 29 659
 41 0 653 0 638 -.035 -.035 .36 29 638 46 0 635 659 636 -.035 -.035 .19 17 662 0
 629 631 630 635 658 663 0 661 +15 629 8 0 630 664 0 17 631 0 629 626 662 627 66
5 666 0 647 +17 630 0 629 662 626 653 667 668 0 669 +16 663 24 0 ?662 666 668 67
0 0 0 24 17 661 0 660 658 643 635 648 625 0 665 -15 660 161 0 643 671 0 17 643 0
 660 661 624 642 641 672 0 648 +17 648 0 646 645 665 642 661 625 0 649 +16 625 1
55 0 ?648 37 673 620 0 0 24 17 665 0 646 648 647 635 631 666 0 0 -15 646 159 0 6
45 674 0 17 647 0 646 665 645 627 651 673 0 632 -16 666 29 0 ?631 633 663 675 0
 0 24 16 633 34 0 ?626 676 666 677 0 0 24 31 675 31 0 666 670 677 0 +69388939039
0723e-32 -.035 .19 0 -1 0 0 0 -1 .035 30 670 26 0 663 678 675 0 +-.035 -.035 .27
5 0 0 -1 30 677 36 0 633 675 679 0 +.035 -.035 .275 0 0 1 31 679 148 0 680 677 6
81 0 +693889390390723e-32 0 .19 0 -1 0 0 0 -1 .0125 16 680 122 0 ?682 683 0 679
 0 0 24 31 681 147 0 683 679 684 0 +693889390390723e-32 0 .36 0 -1 0 0 0 -1 .012
5 16 683 118 0 ?685 686 680 681 0 0 24 31 684 146 0 686 681 687 0 +6938893903907
23e-32 0 .36 0 -1 0 0 0 -1 .035 16 686 114 0 ?688 672 683 684 0 0 24 30 687 145
 0 672 684 689 0 +-.035 0 .275 0 0 -1 16 672 110 0 ?643 650 686 687 0 0 24 31 68
9 144 0 650 687 690 0 +693889390390723e-32 0 .19 0 -1 0 0 0 -1 .035 16 650 106 0
 ?645 656 672 689 0 0 24 30 690 143 0 656 689 691 0 +.035 0 .275 0 0 1 16 656 10
2 0 ?652 692 650 690 0 0 24 30 691 179 0 676 690 693 0 +.035 -.035 .36 0 1 0 16
 676 153 0 ?657 673 633 691 0 0 24 30 693 180 0 673 691 620 0 +.035 -.035 .19 0
 1 0 16 673 154 0 ?651 625 676 693 0 0 24 30 620 181 0 625 693 34 0 +-.035 -.035
 .19 0 1 0 17 651 0 654 652 632 644 647 673 0 655 +15 654 157 0 652 694 0 17 632
 0 654 651 634 627 626 633 0 0 -17 655 0 695 649 696 644 652 656 0 0 -15 695 101
 0 696 697 0 17 649 0 695 641 655 642 645 650 0 0 -17 696 0 695 655 641 621 688
 686 0 0 -17 641 0 695 696 649 639 643 672 0 624 -17 688 0 698 669 657 639 696 6
86 0 0 +15 698 163 0 688 616 0 17 669 0 698 667 688 653 624 37 0 0 -17 657 0 698
 688 667 621 634 676 0 696 +17 667 0 698 657 669 38 630 668 0 0 -17 634 0 654 63
2 652 38 657 676 0 667 -16 668 19 0 ?630 663 699 678 0 0 24 16 699 14 0 ?700 668
 692 701 0 0 24 31 678 21 0 668 701 670 0 +693889390390723e-32 -.035 .36 0 -1 0
 0 0 -1 .035 31 701 16 0 699 702 678 0 +693889390390723e-32 -.035 .36 0 -1 0 0 0
 -1 .0125 31 702 11 0 692 0 701 0 +693889390390723e-32 -.035 .19 0 -1 0 0 0 -1 .
0125 16 692 9 0 ?703 699 656 702 0 0 24 17 703 0 704 703 703 0 705 692 0 0 +15 7
04 169 0 703 618 706 17 705 0 707 705 705 0 703 692 0 0 -15 707 6 0 705 664 708
 14 664 1 0 ?697 694 707 32 709 +0 0 697 694 623 15 708 7 0 710 664 629 17 710 0
 708 710 710 0 700 699 0 0 -17 700 0 711 700 700 0 710 699 0 0 +15 711 165 0 700
 712 713 14 712 166 0 ?618 674 711 32 619 +0 0 618 674 623 15 713 167 0 714 712
 0 17 714 0 713 714 714 0 685 683 0 0 -17 685 0 715 685 685 0 714 683 0 0 +15 71
5 100 0 685 697 695 14 697 90 0 ?0 664 716 32 717 -0 0 0 664 623 15 716 99 0 682
 697 715 50 717 142 0 697 709 718 0 +-.0125 0 .265 0 -1 0 1 0 0 13 623 61 0 0 0
 0 0 0 36 616 14 616 164 0 ?671 0 698 32 719 -0 0 671 0 623 14 671 162 0 ?674 61
6 660 32 720 -0 0 674 616 623 51 719 176 0 616 720 619 0 -693889390390723e-32 -.
035 .36 0 1 0 .035 0 0 1 50 720 175 0 671 721 719 0 +-.035 -.035 .275 1 0 0 0 0
 -1 51 619 177 0 712 719 33 0 -693889390390723e-32 -.035 .36 0 1 0 .0125 0 0 1 5
1 721 174 0 674 718 720 0 -693889390390723e-32 -.035 .19 0 1 0 .035 0 0 1 14 674
 160 0 ?712 671 646 32 721 -0 0 712 671 623 50 718 173 0 694 717 721 0 +.035 -.0
35 .275 -1 0 0 0 0 1 14 694 158 0 ?664 618 654 32 718 -0 0 664 618 623 14 618 17
0 0 ?694 712 704 32 33 +0 0 694 712 623 50 709 3 0 664 0 717 0 +-.0125 -.035 .26
5 0 -1 0 1 0 0 17 682 0 716 682 682 0 722 680 0 0 +17 722 0 706 722 722 0 682 68
0 0 0 -15 706 171 0 722 618 0 17 624 0 660 643 658 639 669 37 0 688 +19 617 184
 0 24 0 36 32 0 S0 74 20 615 3 0 0 723 613 29 0 0 0 0 0 0 0 0 0 0 0 0 0 0 0 0 0
 81 1 723 235 328 24 0 613 0 0 724 81 1 613 236 330 24 723 29 0 0 725 98 6 725 8
0 97 114 116 32 51 83 3 724 .231372549019608 .380392156862745 .705882352941177 8
4 6 614 Part 384 17 28 MZIwXnmOExHF7WOxi81 1 16 156 5 10 726 0 0 0 727 70 17 0 4
 T10 0 0 3 20 1 728 728 13 19 69 0 10 0 729 0 0 730 0 50 20 116 0 729 731 0 0 +-
.03 0 -849769420904307e-48 -1224646799147352e-31 0 1 1 0 1224646799147352e-31 31
 21 120 0 23 732 0 0 +93374396706365e-31 0 .03 -1224646799147352e-31 0 1 1 0 122
4646799147352e-31 .05 19 22 79 0 10 730 0 733 0 V0 16 23 93 0 ?734 0 735 21 0 0
 10 17 734 0 736 734 734 0 737 23 0 0 +16 735 88 0 ?738 23 739 732 0 0 10 17 738
 0 740 738 738 0 741 735 0 0 +16 739 83 0 ?742 735 743 744 0 0 10 31 732 119 0 7
35 744 21 0 +811279287148915e-32 0 .04 -1224646799147352e-31 0 1 1 0 12246467991
47352e-31 .05 31 744 118 0 739 745 732 0 +811279287148915e-32 0 .04 -12246467991
47352e-31 0 1 1 0 1224646799147352e-31 .06 31 745 117 0 743 0 744 0 +13011380068
07856e-32 0 693889390390723e-32 -1224646799147352e-31 0 1 1 0 1224646799147352e-
31 .06 16 743 81 0 ?746 739 0 745 0 0 10 17 746 0 747 746 746 0 748 743 0 0 +15
 747 85 0 746 749 0 17 748 0 750 748 748 0 746 743 0 0 -15 750 134 0 748 729 0 1
4 729 109 0 ?751 0 750 19 20 -0 0 751 0 733 14 751 101 0 ?752 729 736 19 731 -0
 0 752 729 733 13 733 78 0 0 0 0 0 0 22 729 14 752 96 0 ?753 751 754 19 755 -0 0
 753 751 733 15 736 100 0 734 751 0 50 731 115 0 751 755 20 0 +-.025 0 .03 12246
46799147352e-31 0 -1 -1 0 -1224646799147352e-31 51 755 114 0 752 756 731 0 +1117
440986935752e-32 0 .015 -1224646799147352e-31 0 1 .05 1 0 1224646799147352e-31 5
0 756 113 0 753 757 755 0 +-.055 0 .04 1224646799147352e-31 0 -1 -1 0 -122464679
9147352e-31 14 753 91 0 ?749 752 758 19 756 -0 0 749 752 733 51 757 112 0 749 0
 756 0 -1117440986935752e-32 0 .015 -1224646799147352e-31 0 1 .06 1 0 1224646799
147352e-31 14 749 86 0 ?0 753 759 19 757 -0 0 0 753 733 15 759 130 0 760 749 747
 17 760 0 759 760 760 0 742 739 0 0 -17 742 0 761 742 742 0 760 739 0 0 +15 761
 90 0 742 753 0 15 758 131 0 741 753 761 17 741 0 758 741 741 0 738 735 0 0 -15
 754 132 0 737 752 740 17 737 0 754 737 737 0 734 23 0 0 -15 740 95 0 738 752 0
 19 730 68 0 10 0 22 19 0 S0 74 20 728 3 0 0 762 726 16 0 0 0 0 0 0 0 0 0 0 0 0
 0 0 0 0 0 81 1 762 154 328 10 0 726 0 0 763 81 1 726 155 330 10 762 16 0 0 764
 98 6 764 80 97 114 116 32 49 83 3 763 .615686274509804 .811764705882353 .929411
764705882 84 6 727 Part 184 17 15 M06RJ5u0Z1IHIewhq74 20 8 3 0 0 6 2 9 0 0 0 0 0
 0 0 0 0 0 0 0 0 0 0 0 0 81 1 6 1 330 1 0 2 0 0 765 98 10 765 65 115 115 101 109
 98 108 121 32 49 84 10 7 Assembly 11 0 
